# AST/ASF file generated using VICON BodyLanguage
# -----------------------------------------------
:version 1.10
:name VICON
:units
  mass 1.0
  length 0.45
  angle deg
:documentation
   .ast/.asf automatically generated from VICON data using
   VICON BodyBuilder and BodyLanguage model FoxedUp or BRILLIANT.MOD
:root
   order TX TY TZ RX RY RZ
   axis XYZ
   position 0 0 0  
   orientation 0 0 0 
:bonedata
  begin
     id 1 
     name lhipjoint
     direction 0.577973 -0.728611 0.367523 
     length 2.48544 
     axis 0 0 0  XYZ
  end
  begin
     id 2 
     name lfemur
     direction 0.34202 -0.939693 0  
     length 7.1921  
     axis 0 0 20  XYZ
    dof rx ry rz
    limits (-160.0 20.0)
           (-70.0 70.0)
           (-60.0 70.0)
  end
  begin
     id 3 
     name ltibia
     direction 0.34202 -0.939693 0   
     length 7.71059   
     axis 0 0 20   XYZ
    dof rx
    limits (-10.0 170.0)
  end
  begin
     id 4 
     name lfoot
     direction 0.089538 -0.246004 0.965124   
     length 2.19909   
     axis -90 7.62852e-016 20   XYZ
    dof rx rz
    limits (-45.0 90.0)
           (-70.0 20.0)
  end
  begin
     id 5 
     name ltoes
     direction 1.53544e-011 -4.21829e-011 1   
     length 1.10116   
     axis -90 7.62852e-016 20   XYZ
    dof rx
    limits (-90.0 20.0)
  end
  begin
     id 6 
     name rhipjoint
     direction -0.554414 -0.743062 0.374812   
     length 2.4371  
     axis 0 0 0  XYZ 
  end
  begin
     id 7 
     name rfemur
     direction -0.34202 -0.939693 0   
     length 7.47254   
     axis 0 0 -20   XYZ
    dof rx ry rz
    limits (-160.0 20.0)
           (-70.0 70.0)
           (-70.0 60.0)
  end
  begin
     id 8 
     name rtibia
     direction -0.34202 -0.939693 0   
     length 7.65855   
     axis 0 0 -20   XYZ
    dof rx
    limits (-10.0 170.0)
 end
 begin
     id 9 
     name rfoot
     direction -0.133779 -0.367555 0.92033   
     length 2.43006  
     axis -90 -7.62852e-016 -20   XYZ
    dof rx rz
    limits (-45.0 90.0)
           (-20.0 70.0)
  end
  begin
     id 10 
     name rtoes
     direction -1.53563e-011 -4.21889e-011 1   
     length 1.19625   
     axis -90 -7.62852e-016 -20   XYZ
    dof rx
    limits (-90.0 20.0)
  end
  begin
     id 11 
     name lowerback
     direction 0.0249066 0.998043 -0.0573585   
     length 2.08485   
     axis 0 0 0   XYZ
    dof rx ry rz
    limits (-20.0 45.0)
           (-30.0 30.0)
           (-30.0 30.0)
  end
  begin
     id 12 
     name upperback
     direction 0.0237884 0.999673 0.00943178   
     length 2.08515   
     axis 0 0 0   XYZ
    dof rx ry rz
    limits (-20.0 45.0)
           (-30.0 30.0)
           (-30.0 30.0)
  end
  begin
     id 13 
     name thorax
     direction 0.0106671 0.999301 0.0358174   
     length 2.09037   
     axis 0 0 0   XYZ
    dof rx ry rz
    limits (-20.0 45.0)
           (-30.0 30.0)
           (-30.0 30.0)
  end
  begin
     id 14 
     name lowerneck
     direction -0.0580016 0.987052 0.149546   
     length 1.84454   
     axis 0 0 0   XYZ
    dof rx ry rz
    limits (-20.0 45.0)
           (-30.0 30.0)
           (-30.0 30.0)
  end
  begin
     id 15 
     name upperneck
     direction 0.079456 0.981963 -0.171567   
     length 1.88141   
     axis 0 0 0   XYZ
    dof rx ry rz
    limits (-20.0 45.0)
           (-30.0 30.0)
           (-30.0 30.0)
  end
  begin
     id 16
     name head
     direction 0.0262167 0.9967 -0.0768276  
     length 1.89541  
     axis 0 0 0   XYZ
    dof rx ry rz
    limits (-20.0 45.0)
           (-30.0 30.0)
           (-30.0 30.0)
  end
  begin
     id 17 
     name lclavicle
     direction 0.946135 0.322134 -0.0325326  
     length 3.949  
     axis 0 0 0   XYZ
    dof ry rz
    limits (-20.0 10.0)
           (0.0 20.0)
  end
  begin
     id 18 
     name lhumerus
     direction 1 -4.48964e-011 1.94005e-028   
     length 5.10995   
     axis 180 -30 -90   XYZ
    dof rx ry rz
    limits (-60.0 90.0)
           (-90.0 90.0)
           (-90.0 90.0)
  end
  begin
     id 19
     name lradius
     direction 1 -4.48976e-011 2.87852e-027   
     length 3.21207   
     axis 180 -30 -90   XYZ
    dof rx
    limits (-10.0 170.0)
  end
  begin
     id 20
     name lwrist
     direction 1 -4.48963e-011 1.9975e-027   
     length 1.60604   
     axis 2.96054e-016 90 90   XYZ
    dof ry
    limits (-180.0 0.0)
 end
  begin
     id 21 
     name lhand
     direction 1 -4.48919e-011 4.00227e-027   
     length 0.63349   
     axis -2.5488e-015 90 90   XYZ
    dof rx rz
    limits (-90.0 90.0)
           (-45.0 45.0)
  end
  begin
     id 22 
     name lfingers
     direction 1 -4.49037e-011 7.9652e-027   
     length 0.510736   
     axis -5.0975e-015 90 90   XYZ
    dof rx
    limits (0.0 90.0)
  end
  begin
     id 23
     name lthumb
     direction 0.707107 -6.34922e-011 0.707107   
     length 0.733318   
     axis -90 45 -4.48553e-014   XYZ
    dof rx rz
    limits (-45.0 45.0)
           (-45.0 45.0)
  end
  begin
     id 24 
     name rclavicle
     direction -0.940085 0.328911 -0.0897654   
     length 3.93848  
     axis 0 0 0   XYZ 
    dof ry rz
    limits (-10.0 20.0)
           (-20.0 0.0)
  end
  begin
     id 25 
     name rhumerus
     direction -1 -4.48958e-011 3.02044e-027  
     length 5.25109   
     axis 180 30 90   XYZ
    dof rx ry rz
    limits (-90.0 60.0)
           (-90.0 90.0)
           (-90.0 90.0)
  end
  begin
     id 26 
     name rradius
     direction -1 -4.4897e-011 9.78352e-028   
     length 3.28364   
     axis 180 30 90   XYZ
    dof rx
    limits (-10.0 170.0)
  end
  begin
     id 27 
     name rwrist
     direction -1 -4.48943e-011 1.99918e-027   
     length 1.64182   
     axis 2.96054e-016 -90 -90   XYZ
    dof ry
    limits (-180.0 0.0)
  end
  begin
     id 28
     name rhand
     direction -1 -4.49024e-011 3.98478e-027   
     length 0.599745   
     axis -2.5488e-015 -90 -90   XYZ
    dof rx rz
    limits (-90.0 90.0)
           (-45.0 45.0)
  end
  begin
     id 29
     name rfingers
     direction -1 -4.48914e-011 8.00621e-027   
     length 0.48353   
     axis -5.0975e-015 -90 -90   XYZ
    dof rx
    limits (0.0 90.0)
  end
  begin
     id 30
     name rthumb
     direction -0.707107 -6.34992e-011 0.707107   
     length 0.694255   
     axis -90 -45 4.48553e-014   XYZ
    dof rx rz
    limits (-45.0 45.0)
           (-45.0 45.0)
  end
:hierarchy
  begin
    root lhipjoint rhipjoint lowerback
    lhipjoint lfemur
    lfemur ltibia
    ltibia lfoot
    lfoot ltoes
    rhipjoint rfemur
    rfemur rtibia
    rtibia rfoot
    rfoot rtoes
    lowerback upperback
    upperback thorax
    thorax lowerneck lclavicle rclavicle
    lowerneck upperneck
    upperneck head
    lclavicle lhumerus
    lhumerus lradius
    lradius lwrist
    lwrist lhand lthumb
    lhand lfingers
    rclavicle rhumerus
    rhumerus rradius
    rradius rwrist
    rwrist rhand rthumb
    rhand rfingers
  end

#!OML:ASF E:\CV Data\Top Level 1\Subject 1\Session 1\player.ASF
:FULLY-SPECIFIED
:DEGREES
190
root 5.1113 16.9931 -8.43359 7.48002 -25.295 -5.41961
lowerback 6.93797 0.281673 1.43045
upperback 0.895518 0.54239 2.20854
thorax -2.97402 0.259431 1.42473
lowerneck -10.8461 -2.22433 -9.52323
upperneck 17.6798 -4.11753 14.2937
head 7.68795 -1.37381 5.97509
rclavicle -1.64059e-014 1.09332e-015
rhumerus 47.6616 44.3353 -41.9455
rradius 33.3343
rwrist -5.17732
rhand -20.8371 6.83405
rfingers 7.12502
rthumb 5.5316 -23.0738
lclavicle -1.64059e-014 1.09332e-015
lhumerus 9.75393 -25.3577 84.8712
lradius 35.5707
lwrist 26.3611
lhand -18.381 30.6029
lfingers 7.12502
lthumb 7.90263 60.4352
rfemur -18.5738 3.06925 26.1545
rtibia 42.8178
rfoot -27.7549 -3.04615
rtoes 8.18022
lfemur -37.6154 13.7222 -13.3458
ltibia 67.3084
lfoot -13.601 11.6231
ltoes -6.41074
191
root 5.08076 16.9858 -8.38901 7.39883 -25.732 -5.56156
lowerback 6.96833 0.131197 1.56321
upperback 0.846477 0.354968 2.23185
thorax -3.03826 0.164512 1.39197
lowerneck -10.6572 -1.93302 -9.31044
upperneck 17.9591 -3.79247 14.2622
head 7.69482 -1.21249 5.9676
rclavicle -8.34896e-015 1.65737e-014
rhumerus 51.4876 43.1236 -38.0675
rradius 35.2293
rwrist -5.8529
rhand -20.9246 6.95843
rfingers 7.12502
rthumb 5.44712 -22.9516
lclavicle -8.34896e-015 1.65737e-014
lhumerus 10.8725 -24.4133 83.7206
lradius 34.7875
lwrist 25.3979
lhand -18.4931 30.0978
lfingers 7.12502
lthumb 7.79442 59.9341
rfemur -18.2007 2.95037 26.2849
rtibia 42.7777
rfoot -27.8796 -2.65721
rtoes 8.10538
lfemur -38.1433 14.4107 -13.6371
ltibia 67.3073
lfoot -13.9961 10.8424
ltoes -8.01666
192
root 5.05002 16.9795 -8.3422 7.34234 -26.1155 -5.71485
lowerback 7.00299 -0.0363704 1.71312
upperback 0.795664 0.146764 2.26508
thorax -3.10719 0.0589781 1.3622
lowerneck -10.4712 -1.64688 -9.10048
upperneck 18.2286 -3.46831 14.2127
head 7.69989 -1.05314 5.95315
rclavicle -4.79288e-014 1.88845e-014
rhumerus 54.8959 41.5761 -34.5677
rradius 37.1271
rwrist -6.51057
rhand -21.0791 7.02345
rfingers 7.12502
rthumb 5.29801 -22.8903
lclavicle -4.79288e-014 1.88845e-014
lhumerus 11.9538 -23.4695 82.5134
lradius 34.02
lwrist 24.404
lhand -18.6057 29.5818
lfingers 7.12502
lthumb 7.6857 59.4221
rfemur -17.8326 2.73948 26.4249
rtibia 42.7112
rfoot -27.9949 -2.26826
rtoes 7.97542
lfemur -38.6712 15.0709 -13.9177
ltibia 67.1544
lfoot -14.3165 10.059
ltoes -9.57631
193
root 5.01899 16.9747 -8.29278 7.30398 -26.4626 -5.8735
lowerback 7.04556 -0.215703 1.8648
upperback 0.741374 -0.0759605 2.31157
thorax -3.18479 -0.0538803 1.34708
lowerneck -10.2753 -1.3633 -8.90604
upperneck 18.486 -3.14063 14.1503
head 7.69969 -0.894629 5.93607
rclavicle 6.40459e-014 -1.59028e-015
rhumerus 57.8847 39.7584 -31.4404
rradius 39.0226
rwrist -7.17856
rhand -21.3269 7.01522
rfingers 7.12502
rthumb 5.05873 -22.9044
lclavicle 6.40459e-014 -1.59028e-015
lhumerus 12.9986 -22.5465 81.2478
lradius 33.2544
lwrist 23.368
lhand -18.7254 29.0611
lfingers 7.12502
lthumb 7.57022 58.9056
rfemur -17.46 2.46315 26.5632
rtibia 42.6179
rfoot -28.1094 -1.87116
rtoes 7.85473
lfemur -39.1914 15.7193 -14.1929
ltibia 66.8658
lfoot -14.5764 9.27679
ltoes -10.9363
194
root 4.98774 16.9713 -8.24053 7.28025 -26.7837 -6.0277
lowerback 7.08928 -0.40074 2.01203
upperback 0.685895 -0.306043 2.36537
thorax -3.26494 -0.170418 1.34334
lowerneck -10.0728 -1.08469 -8.72403
upperneck 18.7314 -2.81387 14.0784
head 7.6955 -0.738459 5.91658
rclavicle 3.40077e-014 7.82715e-015
rhumerus 60.4604 37.7163 -28.6696
rradius 40.9136
rwrist -7.87414
rhand -21.6916 6.9211
rfingers 7.12502
rthumb 4.70656 -23.0066
lclavicle 3.40077e-014 7.82715e-015
lhumerus 14.0102 -21.6465 79.9229
lradius 32.4809
lwrist 22.2393
lhand -18.8288 28.5574
lfingers 7.12502
lthumb 7.47038 58.4055
rfemur -17.084 2.13798 26.6885
rtibia 42.4974
rfoot -28.2236 -1.47002
rtoes 7.75123
lfemur -39.7063 16.3649 -14.4744
ltibia 66.458
lfoot -14.7672 8.51017
ltoes -12.0675
195
root 4.95622 16.9691 -8.18565 7.27003 -27.0867 -6.17289
lowerback 7.13034 -0.587053 2.15188
upperback 0.634856 -0.538381 2.41933
thorax -3.33962 -0.288037 1.34465
lowerneck -9.88053 -0.812492 -8.54843
upperneck 18.9657 -2.49231 14.007
head 7.69133 -0.584803 5.89691
rclavicle 2.70099e-014 2.05991e-014
rhumerus 62.6406 35.4792 -26.2434
rradius 42.7893
rwrist -8.60166
rhand -22.1929 6.74347
rfingers 7.12502
rthumb 4.22253 -23.1944
lclavicle 2.70099e-014 2.05991e-014
lhumerus 15.0033 -20.7885 78.5203
lradius 31.6971
lwrist 21.0184
lhand -18.9092 28.0743
lfingers 7.12502
lthumb 7.39283 57.9251
rfemur -16.7042 1.78953 26.7968
rtibia 42.3524
rfoot -28.3367 -1.07807
rtoes 7.66771
lfemur -40.2172 17.0164 -14.7659
ltibia 65.9478
lfoot -14.889 7.77694
ltoes -12.9563
